<mxfile host="app.diagrams.net" modified="2023-02-19T12:30:23.568Z" agent="5.0 (Macintosh)" version="20.6.0" etag="gkwkXeociwUrBBCSu1YJ" type="github">
  <diagram id="942CAgYbCTUJCUw2f_U0" name="Page-1">
    <mxGraphModel dx="1018" dy="684" grid="1" gridSize="10" guides="1" tooltips="1" connect="1" arrows="1" fold="1" page="1" pageScale="1" pageWidth="850" pageHeight="1100" math="0" shadow="0">
      <root>
        <mxCell id="0" />
        <mxCell id="1" parent="0" />
        <mxCell id="1GXniccqdy536uJdxTcp-13" style="edgeStyle=orthogonalEdgeStyle;rounded=0;orthogonalLoop=1;jettySize=auto;html=1;exitX=0.5;exitY=1;exitDx=0;exitDy=0;entryX=0.5;entryY=0;entryDx=0;entryDy=0;" edge="1" parent="1" source="1GXniccqdy536uJdxTcp-1" target="1GXniccqdy536uJdxTcp-10">
          <mxGeometry relative="1" as="geometry" />
        </mxCell>
        <mxCell id="1GXniccqdy536uJdxTcp-1" value="Generate public/private key pair" style="rounded=1;whiteSpace=wrap;html=1;" vertex="1" parent="1">
          <mxGeometry x="70" y="250" width="200" height="100" as="geometry" />
        </mxCell>
        <mxCell id="1GXniccqdy536uJdxTcp-2" value="Base station" style="text;html=1;strokeColor=none;fillColor=none;align=center;verticalAlign=middle;whiteSpace=wrap;rounded=0;" vertex="1" parent="1">
          <mxGeometry x="60" y="20" width="180" height="30" as="geometry" />
        </mxCell>
        <mxCell id="1GXniccqdy536uJdxTcp-3" value="End device" style="text;html=1;strokeColor=none;fillColor=none;align=center;verticalAlign=middle;whiteSpace=wrap;rounded=0;" vertex="1" parent="1">
          <mxGeometry x="490" y="20" width="180" height="30" as="geometry" />
        </mxCell>
        <mxCell id="1GXniccqdy536uJdxTcp-7" style="edgeStyle=orthogonalEdgeStyle;rounded=0;orthogonalLoop=1;jettySize=auto;html=1;exitX=0;exitY=0.5;exitDx=0;exitDy=0;entryX=1;entryY=0.5;entryDx=0;entryDy=0;" edge="1" parent="1" source="1GXniccqdy536uJdxTcp-5" target="1GXniccqdy536uJdxTcp-1">
          <mxGeometry relative="1" as="geometry" />
        </mxCell>
        <mxCell id="1GXniccqdy536uJdxTcp-9" style="edgeStyle=orthogonalEdgeStyle;rounded=0;orthogonalLoop=1;jettySize=auto;html=1;exitX=1;exitY=1;exitDx=0;exitDy=0;entryX=0;entryY=0.5;entryDx=0;entryDy=0;" edge="1" parent="1" source="1GXniccqdy536uJdxTcp-5" target="1GXniccqdy536uJdxTcp-8">
          <mxGeometry relative="1" as="geometry" />
        </mxCell>
        <mxCell id="1GXniccqdy536uJdxTcp-5" value="Key exchange was initiated by end device" style="ellipse;whiteSpace=wrap;html=1;" vertex="1" parent="1">
          <mxGeometry x="320" y="70" width="160" height="120" as="geometry" />
        </mxCell>
        <mxCell id="1GXniccqdy536uJdxTcp-6" value="" style="endArrow=classic;html=1;rounded=0;entryX=1;entryY=0.5;entryDx=0;entryDy=0;" edge="1" parent="1" target="1GXniccqdy536uJdxTcp-5">
          <mxGeometry width="50" height="50" relative="1" as="geometry">
            <mxPoint x="560" y="130" as="sourcePoint" />
            <mxPoint x="590" y="120" as="targetPoint" />
          </mxGeometry>
        </mxCell>
        <mxCell id="1GXniccqdy536uJdxTcp-12" style="edgeStyle=orthogonalEdgeStyle;rounded=0;orthogonalLoop=1;jettySize=auto;html=1;exitX=0.5;exitY=1;exitDx=0;exitDy=0;entryX=0.5;entryY=0;entryDx=0;entryDy=0;" edge="1" parent="1" source="1GXniccqdy536uJdxTcp-8" target="1GXniccqdy536uJdxTcp-11">
          <mxGeometry relative="1" as="geometry" />
        </mxCell>
        <mxCell id="1GXniccqdy536uJdxTcp-8" value="Generate public/private key pair" style="rounded=1;whiteSpace=wrap;html=1;" vertex="1" parent="1">
          <mxGeometry x="480" y="250" width="200" height="100" as="geometry" />
        </mxCell>
        <mxCell id="1GXniccqdy536uJdxTcp-10" value="Exchange public key" style="rounded=1;whiteSpace=wrap;html=1;" vertex="1" parent="1">
          <mxGeometry x="70" y="400" width="200" height="100" as="geometry" />
        </mxCell>
        <mxCell id="1GXniccqdy536uJdxTcp-11" value="Exchange public key" style="rounded=1;whiteSpace=wrap;html=1;" vertex="1" parent="1">
          <mxGeometry x="480" y="400" width="200" height="100" as="geometry" />
        </mxCell>
        <mxCell id="1GXniccqdy536uJdxTcp-15" value="" style="shape=flexArrow;endArrow=classic;startArrow=classic;html=1;rounded=0;exitX=1;exitY=0.5;exitDx=0;exitDy=0;entryX=0;entryY=0.5;entryDx=0;entryDy=0;" edge="1" parent="1" source="1GXniccqdy536uJdxTcp-10" target="1GXniccqdy536uJdxTcp-11">
          <mxGeometry width="100" height="100" relative="1" as="geometry">
            <mxPoint x="350" y="550" as="sourcePoint" />
            <mxPoint x="450" y="450" as="targetPoint" />
          </mxGeometry>
        </mxCell>
      </root>
    </mxGraphModel>
  </diagram>
</mxfile>
